<svg xmlns="http://www.w3.org/2000/svg" viewBox="324 0 210.53 210.53">
  <path fill="#f8c702" d="M478.52,1.99c4.92-.68,9.83-1.41,14.76-1.99-8.65,15.27-17.47,30.44-26.39,45.55-5.91,10.05-11.74,20.16-17.8,30.12-.96,1.64-1.88,3.32-2.96,4.88,17.11-2.67,34.2-5.44,51.3-8.17-7.45,9.44-15.12,18.71-22.69,28.05-7,8.67-14.08,17.27-21.04,25.98-17.58,21.47-34.99,43.08-52.67,64.48-3.76,4.54-7.39,9.18-11.22,13.66-1.69,1.97-3.27,4.03-4.97,5.99.19-.97.71-1.83,1.06-2.74,5.04-12.4,9.92-24.87,14.74-37.35,7.45-18.84,14.75-37.75,22.17-56.61-7.19,1-14.33,2.33-21.5,3.48-6.18.98-12.34,2.06-18.53,2.96,10-36.37,20.22-72.69,29.98-109.13,7.14-1.12,51-7.12,65.78-9.15Z"/>
</svg>
